<svg width="21" height="21" viewBox="0 0 21 21" fill="none" xmlns="http://www.w3.org/2000/svg">
<path d="M1.28241 20.25H19.8009C20.4375 20.25 20.9583 19.5 20.9583 18.5833C20.9583 17.6667 20.4375 16.9167 19.8009 16.9167H1.28241C0.645833 16.9167 0.125 17.6667 0.125 18.5833C0.125 19.5 0.645833 20.25 1.28241 20.25ZM1.28241 11.9167H19.8009C20.4375 11.9167 20.9583 11.1667 20.9583 10.25C20.9583 9.33333 20.4375 8.58333 19.8009 8.58333H1.28241C0.645833 8.58333 0.125 9.33333 0.125 10.25C0.125 11.1667 0.645833 11.9167 1.28241 11.9167ZM0.125 1.91667C0.125 2.83333 0.645833 3.58333 1.28241 3.58333H19.8009C20.4375 3.58333 20.9583 2.83333 20.9583 1.91667C20.9583 1 20.4375 0.25 19.8009 0.25H1.28241C0.645833 0.25 0.125 1 0.125 1.91667Z" fill="black"/>
</svg>
